<?xml version="1.0" standalone="no"?>
<!DOCTYPE svg PUBLIC "-//W3C//DTD SVG 20010904//EN"
 "http://www.w3.org/TR/2001/REC-SVG-20010904/DTD/svg10.dtd">
<svg version="1.0" xmlns="http://www.w3.org/2000/svg"
 width="700.000000pt" height="700.000000pt" viewBox="0 0 700.000000 700.000000"
 preserveAspectRatio="xMidYMid meet">
<metadata>
Created by potrace 1.14, written by Peter Selinger 2001-2017
</metadata>
<g transform="translate(0.000000,700.000000) scale(0.100000,-0.100000)"
fill="#000000" stroke="none">
<path d="M3674 6683 c-132 -159 -420 -502 -639 -763 -958 -1141 -1874 -2233
-2546 -3034 l-336 -400 37 -111 c162 -481 427 -917 783 -1291 117 -122 302
-288 316 -282 4 1 1017 1204 2249 2673 l2242 2670 -43 39 c-23 21 -92 77 -154
123 -370 277 -795 477 -1248 588 -124 31 -364 75 -405 75 -8 0 -124 -129 -256
-287z"/>
<path d="M4182 2935 c-1195 -1424 -2172 -2592 -2172 -2596 0 -9 215 -100 344
-145 96 -33 101 -34 117 -17 10 10 945 1123 2078 2473 l2060 2455 -46 84 c-46
87 -158 268 -191 310 l-19 23 -2171 -2587z"/>
</g>
</svg>
