<?xml version="1.0" standalone="no"?>
<!DOCTYPE svg PUBLIC "-//W3C//DTD SVG 20010904//EN"
 "http://www.w3.org/TR/2001/REC-SVG-20010904/DTD/svg10.dtd">
<svg version="1.0" xmlns="http://www.w3.org/2000/svg"
 width="700.000000pt" height="700.000000pt" viewBox="0 0 700.000000 700.000000"
 preserveAspectRatio="xMidYMid meet">
<metadata>
Created by potrace 1.14, written by Peter Selinger 2001-2017
</metadata>
<g transform="translate(0.000000,700.000000) scale(0.100000,-0.100000)"
fill="#000000" stroke="none">
<path d="M3213 6974 c-89 -6 -165 -14 -170 -17 -5 -3 -36 -8 -68 -12 -83 -9
-105 -13 -200 -35 -46 -11 -98 -22 -117 -25 -42 -7 -323 -92 -365 -111 -18 -8
-48 -21 -67 -29 -19 -8 -39 -15 -45 -15 -6 0 -19 -4 -29 -9 -9 -5 -75 -37
-147 -71 -71 -33 -137 -65 -145 -70 -8 -5 -35 -20 -60 -32 -25 -13 -51 -29
-58 -35 -7 -7 -18 -13 -23 -13 -5 0 -22 -9 -37 -19 -15 -11 -47 -32 -71 -48
-47 -30 -64 -41 -127 -85 -21 -15 -50 -36 -64 -45 -14 -10 -58 -46 -98 -80
-40 -35 -76 -63 -80 -63 -4 0 -61 -52 -126 -115 -66 -63 -124 -115 -131 -115
-20 0 -318 -357 -309 -371 3 -5 -22 -48 -54 -96 -106 -156 -136 -206 -188
-311 -29 -56 -56 -108 -61 -115 -5 -6 -25 -48 -43 -92 -18 -44 -38 -93 -45
-110 -23 -54 -33 -80 -45 -115 -6 -19 -19 -48 -28 -65 -9 -16 -15 -31 -13 -33
2 -2 -30 -117 -49 -172 -10 -30 -52 -220 -74 -340 -15 -79 -23 -141 -43 -315
-21 -188 -2 -634 38 -880 25 -154 119 -507 168 -635 16 -41 33 -86 36 -98 7
-25 49 -117 65 -142 5 -8 22 -42 36 -75 60 -136 238 -427 333 -544 20 -25 43
-55 51 -67 118 -173 472 -512 695 -664 28 -19 73 -51 100 -72 28 -21 54 -38
58 -38 5 0 34 -18 64 -40 31 -22 60 -40 64 -40 4 0 43 -22 86 -48 85 -52 226
-122 246 -122 7 0 17 -4 22 -9 16 -15 202 -91 222 -91 11 0 23 -4 28 -8 6 -4
28 -14 50 -21 22 -7 49 -16 60 -21 17 -8 277 -70 355 -86 14 -3 32 -7 40 -9 8
-3 40 -7 70 -11 30 -3 58 -8 62 -10 3 -2 30 -6 60 -9 29 -3 87 -10 128 -16
153 -19 642 -12 750 12 25 6 72 13 105 15 33 3 85 11 115 19 30 7 82 18 115
24 97 20 369 98 420 121 11 5 50 21 88 34 90 34 382 171 442 209 71 44 126 77
130 77 3 0 28 16 55 35 27 19 54 35 59 35 5 0 14 7 22 16 7 8 35 30 63 49 60
39 192 145 256 204 305 281 444 447 674 805 80 124 175 318 276 561 5 11 19
49 30 85 12 36 26 74 30 85 53 137 132 507 146 680 3 44 9 107 14 140 13 93 9
425 -6 570 -14 142 -51 392 -59 405 -3 4 -12 41 -20 81 -27 130 -133 451 -198
603 -9 21 -17 42 -17 46 0 4 -6 13 -14 19 -8 7 -17 23 -20 38 -7 26 -41 106
-56 133 -5 8 -39 67 -76 130 -108 186 -253 386 -290 400 -13 5 -24 16 -24 23
0 8 -13 24 -30 37 -16 13 -30 27 -30 33 0 29 -458 473 -561 543 -95 65 -180
122 -249 166 -98 63 -390 218 -410 218 -6 0 -37 12 -68 26 -31 14 -70 32 -87
39 -16 8 -55 21 -85 30 -30 9 -64 20 -75 25 -56 25 -114 41 -300 84 -202 46
-245 53 -425 70 -207 21 -450 24 -647 10z m2531 -978 c77 -62 180 -152 236
-206 19 -19 53 -51 75 -71 22 -19 52 -50 67 -69 26 -34 26 -35 8 -60 -10 -14
-211 -257 -447 -541 -235 -283 -539 -650 -675 -815 -135 -164 -375 -450 -533
-634 -159 -184 -403 -470 -543 -635 -140 -165 -263 -309 -273 -319 -17 -18
-18 -18 -54 11 -24 21 -45 29 -63 27 -18 -2 -39 7 -63 26 -32 25 -38 27 -51
14 -12 -12 -19 -10 -56 22 -23 20 -49 34 -56 31 -8 -3 -24 5 -37 19 -12 13
-19 24 -15 24 5 0 4 6 -2 13 -8 9 -36 12 -89 12 -69 -2 -81 1 -107 22 -16 13
-35 22 -42 19 -7 -3 -17 1 -23 8 -9 10 26 62 146 218 87 112 195 249 240 304
390 475 676 837 723 919 25 43 60 106 78 139 18 33 40 69 50 79 21 23 111 82
139 91 27 8 374 405 912 1041 145 171 283 327 308 347 52 43 46 45 147 -36z
m-5503 -1860 c-14 -84 -29 -176 -36 -228 -3 -21 -11 -40 -17 -44 -8 -5 -9 7
-3 42 4 27 9 66 11 87 2 21 8 54 14 73 6 18 8 38 5 44 -4 6 1 36 11 67 23 72
30 51 15 -41z"/>
</g>
</svg>
